<svg width="20" height="21" viewBox="0 0 20 21" fill="none" xmlns="http://www.w3.org/2000/svg">
<g clip-path="url(#clip0_38_243)">
<path d="M4.67378 4.72537L12.6468 2.54906L12.2246 1.69561C11.9483 1.14086 11.2746 0.91178 10.7198 1.18803L3.58226 4.72537H4.67378Z" fill="black"/>
<path d="M15.1218 2.61182C15.023 2.61182 14.9242 2.62529 14.8254 2.65224L12.9523 3.16431L7.23189 4.72524H13.7249H16.5547L16.2044 3.44056C16.0696 2.93972 15.6159 2.61182 15.1218 2.61182Z" fill="black"/>
<path d="M17.7249 5.51123H17.4688H17.1207H16.7726H14.1157H4.35261H3.07243H1.99439H1.7945H1.12521C0.770354 5.51123 0.453678 5.67518 0.247052 5.93347C0.152723 6.0525 0.0808535 6.1895 0.0404267 6.33998C0.0157215 6.43431 0 6.53313 0 6.6342V6.76895V8.04913V19.1463C0 19.7662 0.503088 20.2692 1.12296 20.2692H17.7226C18.3425 20.2692 18.8456 19.7662 18.8456 19.1463V16.0132H12.1819C11.1286 16.0132 10.2729 15.1575 10.2729 14.1042V13.0755V12.7274V12.3793V11.6067C10.2729 11.0901 10.4795 10.6207 10.8141 10.2771C11.1106 9.97165 11.5081 9.76502 11.9528 9.71336C12.027 9.7044 12.1033 9.69989 12.1797 9.69989H17.9113H18.2594H18.6075H18.8456V6.6342C18.8478 6.01432 18.3448 5.51123 17.7249 5.51123Z" fill="black"/>
<path d="M19.6339 10.7737C19.5216 10.6704 19.3891 10.5918 19.2409 10.5401C19.1263 10.502 19.0051 10.4795 18.877 10.4795H18.8478H18.8254H18.4773H17.2218H12.1819C11.562 10.4795 11.059 10.9826 11.059 11.6025V12.1617V12.5098V12.8579V14.1022C11.059 14.722 11.562 15.2251 12.1819 15.2251H18.8478H18.877C19.0051 15.2251 19.1263 15.2027 19.2409 15.1645C19.3891 15.1151 19.5216 15.0342 19.6339 14.9309C19.8585 14.7265 20 14.4301 20 14.1022V11.6025C20 11.2745 19.8585 10.978 19.6339 10.7737ZM14.5267 13.0758C14.5267 13.3857 14.2751 13.6372 13.9652 13.6372H13.5924C13.2824 13.6372 13.0309 13.3857 13.0309 13.0758V12.7029C13.0309 12.5233 13.114 12.3638 13.2465 12.2627C13.3431 12.1886 13.4621 12.1415 13.5924 12.1415H13.6867H13.9652C14.2751 12.1415 14.5267 12.393 14.5267 12.7029V13.0758Z" fill="black"/>
</g>
<defs>
<clipPath id="clip0_38_243">
<rect width="20" height="20" fill="white" transform="translate(0 0.669922)"/>
</clipPath>
</defs>
</svg>
