<svg width="25" height="24" viewBox="0 0 25 24" fill="none" xmlns="http://www.w3.org/2000/svg">
<path opacity="0.5" d="M5.22718 2.67864C5.53258 2.37066 5.96135 2.16987 6.77103 2.06009C7.60452 1.94709 8.7092 1.94531 10.2931 1.94531H14.7069C16.2908 1.94531 17.3955 1.94709 18.229 2.06009C19.0387 2.16987 19.4674 2.37066 19.7728 2.67864C20.0782 2.98661 20.2773 3.419 20.3862 4.23552C20.4982 5.07604 20.5 6.19005 20.5 7.78733L20.5 17.9453H7.92598C6.84236 17.9453 6.46352 17.951 6.17321 18.0135C5.65982 18.1239 5.21351 18.3604 4.88811 18.68C4.77837 18.7878 4.72351 18.8417 4.59696 19.1851C4.52435 19.3821 4.5 19.514 4.5 19.6456V7.78733C4.5 6.19005 4.50176 5.07604 4.61382 4.23552C4.72268 3.419 4.92179 2.98661 5.22718 2.67864Z" fill="#212121"/>
<path d="M20.5 17.9453H7.92598C6.84236 17.9453 6.46352 17.951 6.17321 18.0135C5.65982 18.1239 5.21351 18.3604 4.88811 18.68C4.77837 18.7878 4.72351 18.8417 4.59696 19.1851C4.47041 19.5284 4.49045 19.6741 4.53053 19.9654C4.53761 20.0167 4.54522 20.0669 4.55343 20.1159C4.66271 20.7681 4.86259 21.1135 5.16916 21.3595C5.47573 21.6055 5.90616 21.7659 6.71896 21.8536C7.55566 21.9439 8.6646 21.9453 10.2546 21.9453H14.6854C16.2754 21.9453 17.3844 21.9439 18.2211 21.8536C19.0339 21.7659 19.4643 21.6055 19.7709 21.3595C19.9705 21.1993 20.1249 20.997 20.2385 20.6953H8.5C8.08579 20.6953 7.75 20.3595 7.75 19.9453C7.75 19.5311 8.08579 19.1953 8.5 19.1953H20.4754C20.4926 18.8321 20.4982 18.4195 20.5 17.9453Z" fill="#212121"/>
<path d="M7.75 6.94531C7.75 6.5311 8.08579 6.19531 8.5 6.19531H16.5C16.9142 6.19531 17.25 6.5311 17.25 6.94531C17.25 7.35953 16.9142 7.69531 16.5 7.69531H8.5C8.08579 7.69531 7.75 7.35953 7.75 6.94531Z" fill="#212121"/>
<path d="M8.5 9.69531C8.08579 9.69531 7.75 10.0311 7.75 10.4453C7.75 10.8595 8.08579 11.1953 8.5 11.1953H13.5C13.9142 11.1953 14.25 10.8595 14.25 10.4453C14.25 10.0311 13.9142 9.69531 13.5 9.69531H8.5Z" fill="#212121"/>
</svg>
