<svg width="110" height="110" viewBox="0 0 110 110" fill="none" xmlns="http://www.w3.org/2000/svg">
<circle cx="55" cy="55" r="55" fill="#38328B"/>
<path fill-rule="evenodd" clip-rule="evenodd" d="M18.0193 14.2879C26.0557 8.68062 35.8301 5.39203 46.3726 5.39203C73.7702 5.39203 95.9804 27.6022 95.9804 54.9999C95.9804 82.3975 73.7702 104.608 46.3726 104.608C35.8296 104.608 26.0548 101.319 18.0182 95.711C6.94919 85.65 0 71.1365 0 55C0 38.8629 6.94968 24.3489 18.0193 14.2879Z" fill="url(#paint0_linear_62_228)"/>
<path d="M22.6471 55.0001C22.6471 41.0034 33.9936 29.6569 47.9902 29.6569C61.9868 29.6569 73.3333 41.0034 73.3333 55.0001C73.3333 68.9967 61.9868 80.3432 47.9902 80.3432H22.6471V55.0001Z" fill="#38328B"/>
<defs>
<linearGradient id="paint0_linear_62_228" x1="82.7696" y1="21.5685" x2="11.5931" y2="90.8577" gradientUnits="userSpaceOnUse">
<stop stop-color="#68ECBC"/>
<stop offset="0.987515" stop-color="#23D594"/>
</linearGradient>
</defs>
</svg>
