<svg width="27" height="30" viewBox="0 0 27 30" fill="none" xmlns="http://www.w3.org/2000/svg">
<path fill-rule="evenodd" clip-rule="evenodd" d="M13.8899 29.8208C16.0674 28.765 26.625 23.1486 26.625 13.5033C26.625 6.4156 20.7487 0.669922 13.5 0.669922C6.25126 0.669922 0.375 6.4156 0.375 13.5033C0.375 23.1486 10.9326 28.765 13.1101 29.8208C13.3612 29.9425 13.6388 29.9425 13.8899 29.8208ZM13.5 19.0033C16.6066 19.0033 19.125 16.5408 19.125 13.5033C19.125 10.4657 16.6066 8.00326 13.5 8.00326C10.3934 8.00326 7.875 10.4657 7.875 13.5033C7.875 16.5408 10.3934 19.0033 13.5 19.0033Z" fill="white"/>
</svg>
