<svg width="37" height="37" viewBox="0 0 37 37" fill="none" xmlns="http://www.w3.org/2000/svg">
<path d="M18.5917 0.847656C8.67026 0.847656 0.625 9.02858 0.625 19.1211C0.625 27.1949 5.773 34.0446 12.9117 36.4609C13.8096 36.6301 14.1393 36.0645 14.1393 35.5819C14.1393 35.1461 14.1226 33.7066 14.1149 32.1797C9.11654 33.2851 8.06183 30.0236 8.06183 30.0236C7.24454 27.9114 6.06695 27.3498 6.06695 27.3498C4.43683 26.2156 6.18983 26.2389 6.18983 26.2389C7.99399 26.3676 8.94397 28.1221 8.94397 28.1221C10.5464 30.9157 13.147 30.1081 14.1723 29.6411C14.3336 28.4604 14.7992 27.6536 15.313 27.1976C11.3224 26.7355 7.12731 25.1686 7.12731 18.1667C7.12731 16.1716 7.82916 14.5414 8.97849 13.2617C8.79194 12.8012 8.17697 10.9429 9.15254 8.4258C9.15254 8.4258 10.6613 7.93467 14.0947 10.2989C15.5278 9.89403 17.0648 9.69099 18.5917 9.68403C20.1186 9.69099 21.6567 9.89403 23.0926 10.2989C26.5218 7.93467 28.0284 8.4258 28.0284 8.4258C29.0064 10.9429 28.3911 12.8012 28.2046 13.2617C29.3566 14.5414 30.0537 16.1716 30.0537 18.1667C30.0537 25.1853 25.8506 26.7307 21.8498 27.1831C22.4943 27.7502 23.0685 28.8622 23.0685 30.5671C23.0685 33.0119 23.0476 34.9797 23.0476 35.5819C23.0476 36.0682 23.371 36.638 24.2818 36.4585C31.4166 34.0395 36.5581 27.1922 36.5581 19.1211C36.5581 9.02858 28.514 0.847656 18.5917 0.847656Z" fill="white"/>
<path d="M7.4299 27.0842C7.39033 27.1753 7.2499 27.2022 7.12197 27.1399C6.99165 27.0803 6.91846 26.9565 6.96071 26.8654C6.99939 26.7719 7.14012 26.7462 7.27013 26.8082C7.40074 26.8682 7.47512 26.9931 7.4299 27.0842Z" fill="white"/>
<path d="M8.15767 27.91C8.07199 27.9908 7.90448 27.9533 7.79083 27.8256C7.67331 27.6982 7.65129 27.5278 7.73817 27.4458C7.82653 27.365 7.98898 27.4028 8.1068 27.5302C8.22432 27.6592 8.24723 27.8283 8.15767 27.91Z" fill="white"/>
<path d="M8.86607 28.9625C8.75599 29.0402 8.57599 28.9673 8.46471 28.8048C8.35463 28.6423 8.35463 28.4474 8.46709 28.3694C8.57866 28.2913 8.75599 28.3615 8.86875 28.5228C8.97853 28.6877 8.97853 28.8829 8.86607 28.9625Z" fill="white"/>
<path d="M9.83652 29.9791C9.73805 30.0895 9.52829 30.0599 9.37477 29.9092C9.21768 29.7618 9.17395 29.5527 9.27272 29.4423C9.37239 29.3315 9.58333 29.3627 9.73805 29.5122C9.89395 29.6592 9.94155 29.8699 9.83652 29.9791Z" fill="white"/>
<path d="M11.1754 30.5695C11.1319 30.7127 10.9299 30.7777 10.7264 30.7169C10.5232 30.6543 10.3902 30.4866 10.4313 30.342C10.4735 30.1979 10.6764 30.1302 10.8814 30.1952C11.0843 30.2575 11.2176 30.424 11.1754 30.5695Z" fill="white"/>
<path d="M12.6457 30.6788C12.6508 30.8295 12.4782 30.9545 12.2646 30.9569C12.0498 30.9621 11.876 30.8401 11.8737 30.6918C11.8737 30.5396 12.0424 30.4158 12.2572 30.4122C12.4708 30.408 12.6457 30.529 12.6457 30.6788Z" fill="white"/>
<path d="M14.014 30.4423C14.0396 30.5894 13.8911 30.7404 13.679 30.7803C13.4704 30.8194 13.2774 30.7286 13.2509 30.5827C13.225 30.4321 13.3761 30.2811 13.5844 30.242C13.7968 30.2045 13.9869 30.2929 14.014 30.4423Z" fill="white"/>
</svg>
