<svg width="12" height="14" viewBox="0 0 12 14" fill="none" xmlns="http://www.w3.org/2000/svg">
<g clip-path="url(#clip0_23_333)">
<path d="M6.68605 3.24367C5.52303 2.92513 4.28623 3.01195 3.17912 3.48985C2.07202 3.96775 1.16056 4.80826 0.594702 5.8731C0.284633 6.45966 0.0960495 7.10273 0.0402294 7.76385C-0.0155907 8.42497 0.0624997 9.09056 0.26983 9.7208C0.699102 10.978 1.56795 12.038 2.71652 12.7056C3.86901 13.2859 5.18602 13.4524 6.44667 13.177C7.70731 12.9015 8.83491 12.201 9.64035 11.1929C10.5115 10.2489 11.1296 9.0999 11.4373 7.85279C11.6148 7.06743 11.6148 6.25237 11.4373 5.46701C11.2499 4.74611 10.9029 4.07651 10.4221 3.50763C9.68341 2.64421 8.68076 2.04833 7.56929 1.8122C6.2759 1.52289 4.92165 1.70658 3.75205 2.32997C2.64031 2.9611 1.75031 3.9198 1.20343 5.07531C0.656561 6.23083 0.479439 7.52692 0.696224 8.7868C1.20384 11.4974 4.30027 12.8477 6.78757 11.9543C8.07027 11.4639 9.17452 10.5968 9.95507 9.467C10.4923 8.78413 10.9488 8.04147 11.3155 7.25381C11.721 6.54995 11.9496 5.75812 11.9814 4.9464C12.0132 4.13468 11.8474 3.32738 11.4982 2.59393C11.0615 1.85835 10.3978 1.28446 9.60686 0.958565C8.81593 0.632674 7.94057 0.572406 7.11244 0.786828C6.34748 0.991214 5.64622 1.38472 5.07319 1.93114C4.50016 2.47756 4.07377 3.15933 3.83327 3.91372C3.47246 5.34585 3.49347 6.84755 3.89418 8.26903C3.98152 8.59016 4.1314 8.89089 4.33523 9.15396C4.53907 9.41703 4.79284 9.63726 5.08199 9.80202C5.66996 10.1379 6.36646 10.2291 7.02107 10.0558C7.65527 9.856 8.18826 9.41981 8.50958 8.83766C8.83089 8.25551 8.91589 7.57205 8.74695 6.92894C8.67589 6.59391 8.61497 6.24873 8.56421 5.91371L8.65558 6.58376C8.59472 6.12214 8.59472 5.65452 8.65558 5.1929L8.56421 5.86295C8.59677 5.61407 8.6546 5.36915 8.7368 5.13199L8.483 5.74112C8.55496 5.55803 8.65422 5.38689 8.77741 5.23351L8.38147 5.74112C8.47938 5.62292 8.58814 5.51416 8.70634 5.41625L8.19873 5.80204C8.37647 5.67433 8.567 5.56546 8.76726 5.47716L8.12767 5.74112C8.26995 5.68973 8.41587 5.64901 8.56421 5.6193L7.92462 5.74112C8.06974 5.72589 8.21605 5.72589 8.36117 5.74112L7.69112 5.64975C7.80217 5.66939 7.91099 5.7 8.01599 5.74112L7.41701 5.44671C7.52181 5.49202 7.62069 5.54998 7.71142 5.6193L7.20381 5.23351C7.2789 5.29336 7.34701 5.36147 7.40686 5.43656L7.02107 4.92894C7.09183 5.03496 7.15299 5.14708 7.20381 5.26397L6.95001 4.65483C6.99916 4.77539 7.03326 4.90156 7.05153 5.03047L6.96016 4.36042C6.98545 4.55588 6.98545 4.75379 6.96016 4.94925L7.05153 4.2792C6.99594 4.59994 6.90397 4.9133 6.77742 5.21321L7.03122 4.60407C6.65504 5.43462 6.17765 6.21549 5.60991 6.92894L6.00585 6.42132C5.73265 6.75007 5.42268 7.04642 5.08199 7.30457L5.59976 6.90863C5.37437 7.08276 5.12898 7.22931 4.8688 7.34518L5.47793 7.09137C5.27224 7.16299 5.06195 7.22065 4.84849 7.26396L5.51854 7.17259C5.27216 7.19806 5.02381 7.19806 4.77743 7.17259L5.44747 7.26396C5.23855 7.23493 5.03398 7.18038 4.83834 7.10152L5.43732 7.35533C5.31186 7.28485 5.19294 7.20331 5.08199 7.11168L5.58961 7.49746C5.4782 7.40633 5.37617 7.3043 5.28504 7.19289L5.68098 7.70051C5.60366 7.59139 5.53573 7.47592 5.47793 7.35533L5.73174 7.96446C5.67235 7.80311 5.62817 7.63657 5.59976 7.467L5.69113 8.13705C5.65565 7.8471 5.65565 7.55391 5.69113 7.26396L5.59976 7.93401C5.64986 7.62418 5.735 7.32105 5.85356 7.03046L5.59976 7.63959C5.72535 7.32427 5.89266 7.0272 6.09722 6.75635L5.70128 7.26396C5.89158 7.01958 6.10962 6.79813 6.35102 6.60406L5.84341 7C6.06237 6.83812 6.29705 6.69867 6.54392 6.58376L5.94493 6.83756C6.16427 6.75187 6.39238 6.69059 6.62513 6.65482L5.93478 6.75635C6.19106 6.72579 6.45007 6.72579 6.70635 6.75635L6.0363 6.66498C6.29454 6.70488 6.54687 6.77649 6.78757 6.87817L6.17844 6.62437C6.41612 6.73043 6.64092 6.86327 6.84848 7.02031L6.33072 6.62437C6.50633 6.7626 6.6633 6.92298 6.79772 7.10152L6.41194 6.59391C6.52223 6.74677 6.61743 6.90997 6.6962 7.08122L6.44239 6.47208C6.5119 6.64909 6.56293 6.83281 6.59468 7.02031L6.51346 6.35026C6.53885 6.59664 6.53885 6.84499 6.51346 7.09137L6.59468 6.42132C6.55277 6.71094 6.47431 6.99408 6.36118 7.26396L6.61498 6.66498C6.42819 7.1078 6.18964 7.52695 5.90433 7.9137L6.30026 7.36548C6.0283 7.74127 5.7112 8.08223 5.3561 8.38071L5.86372 7.98477C5.60472 8.18514 5.32164 8.35227 5.02108 8.48223L5.62006 8.22842C5.38822 8.32536 5.14653 8.39685 4.89925 8.44162L5.5693 8.35025C5.32318 8.38042 5.0743 8.38042 4.82819 8.35025L5.49824 8.44162C5.30357 8.41255 5.11284 8.36146 4.92971 8.28934L5.52869 8.54314C5.31905 8.44634 5.11858 8.33081 4.92971 8.19797L5.43732 8.58375C5.22588 8.42135 5.03498 8.23385 4.8688 8.02538L5.26473 8.53299C5.12487 8.34322 5.00575 8.13901 4.90941 7.92386L5.16321 8.53299C5.07331 8.28637 5.00868 8.03125 4.97032 7.77157L5.08199 8.48223C5.04971 8.24644 5.04971 8.00736 5.08199 7.77157L4.99062 8.44162C5.00269 8.25962 5.03331 8.07933 5.08199 7.90355L4.82819 8.50253C4.92002 8.30201 5.03229 8.1115 5.16321 7.93401L4.77743 8.44162C4.9359 8.24253 5.1164 8.06202 5.3155 7.90355L4.80788 8.29949C4.98893 8.16851 5.18282 8.05625 5.38656 7.96446L4.78758 8.21827C5.02135 8.11691 5.26693 8.04528 5.51854 8.00507L4.84849 8.09644C5.06773 8.0711 5.28915 8.0711 5.50839 8.09644L4.87895 7.99492C5.03677 8.01796 5.19281 8.05189 5.34595 8.09644C5.98938 8.2712 6.6758 8.18469 7.25575 7.85574C7.83569 7.52679 8.26219 6.98204 8.44239 6.34011C8.59426 5.70415 8.49689 5.03419 8.17027 4.46778C7.84364 3.90138 7.31255 3.48152 6.68605 3.29443V3.24367Z" fill="#5EE5B5"/>
</g>
<defs>
<clipPath id="clip0_23_333">
<rect width="11.9898" height="12.67" fill="white" transform="translate(0.00585938 0.665001)"/>
</clipPath>
</defs>
</svg>
