<svg width="32" height="25" viewBox="0 0 32 25" fill="none" xmlns="http://www.w3.org/2000/svg">
<path fill-rule="evenodd" clip-rule="evenodd" d="M0.388861 5.03701C0.548962 5.03909 0.710867 5.07974 0.860643 5.16295L15.75 13.4348L30.6394 5.16295C30.7891 5.07974 30.951 5.03909 31.1111 5.03702C31.0697 3.408 30.9046 2.4491 30.2463 1.79079C29.3676 0.912109 27.9534 0.912109 25.125 0.912109H6.375C3.54657 0.912109 2.13236 0.912109 1.25368 1.79079C0.595371 2.4491 0.430269 3.408 0.388861 5.03701ZM31.125 7.18107L16.7213 15.1831C16.1172 15.5187 15.3828 15.5187 14.7787 15.1831L0.375 7.18107V18.8288C0.375 21.6572 0.375 23.0714 1.25368 23.9501C2.13236 24.8288 3.54657 24.8288 6.375 24.8288H25.125C27.9534 24.8288 29.3676 24.8288 30.2463 23.9501C31.125 23.0714 31.125 21.6572 31.125 18.8288V7.18107Z" fill="white"/>
</svg>
