<svg width="25" height="33" viewBox="0 0 25 33" fill="none" xmlns="http://www.w3.org/2000/svg">
<path d="M2.56869 2.26815C0.369939 3.69415 -0.061998 8.15159 0.768127 11.7845C1.41463 14.6137 2.78913 18.4087 5.10688 21.9823C7.28725 25.3442 10.3292 28.3587 12.6487 30.1028C15.6273 32.3423 19.8733 33.7658 22.0721 32.3398C23.1839 31.6188 24.8357 29.6487 24.9111 29.2952C24.9111 29.2952 23.9424 27.8017 23.7299 27.474L20.4816 22.4655C20.2403 22.0933 18.7265 22.4335 17.9575 22.8691C16.9202 23.4568 15.9649 25.0338 15.9649 25.0338C15.2536 25.4448 14.6579 25.0353 13.4131 24.4625C11.8833 23.7586 10.1633 21.5716 8.79438 19.5908C7.54406 17.5331 6.24863 15.0707 6.22988 13.3868C6.21444 12.0167 6.08356 11.3058 6.74888 10.8239C6.74888 10.8239 8.57838 10.5948 9.53806 9.8874C10.2494 9.3629 11.1773 8.11953 10.9359 7.74728L7.68769 2.7389C7.47513 2.41115 6.5065 0.917652 6.5065 0.917652C6.15294 0.842339 3.6805 1.54709 2.56869 2.26815Z" fill="white"/>
</svg>
