<svg width="37" height="37" viewBox="0 0 37 37" fill="none" xmlns="http://www.w3.org/2000/svg">
<path fill-rule="evenodd" clip-rule="evenodd" d="M36.625 18.6699C36.625 28.611 28.5661 36.6699 18.625 36.6699C8.68387 36.6699 0.625 28.611 0.625 18.6699C0.625 8.7288 8.68387 0.669922 18.625 0.669922C28.5661 0.669922 36.625 8.7288 36.625 18.6699ZM19.1869 13.6678C17.4405 14.4095 13.95 15.9446 8.71552 18.2731C7.86553 18.6183 7.42026 18.9559 7.37972 19.286C7.31122 19.8439 7.99553 20.0636 8.92737 20.3628C9.05413 20.4035 9.18546 20.4457 9.3201 20.4904C10.2369 20.7946 11.4701 21.1506 12.1113 21.1648C12.6928 21.1776 13.3419 20.9328 14.0585 20.4304C18.9492 17.0596 21.4738 15.3558 21.6324 15.3191C21.7442 15.2932 21.8991 15.2606 22.0041 15.3559C22.1091 15.4512 22.0988 15.6316 22.0877 15.68C22.0199 15.9751 19.3337 18.5249 17.9436 19.8444C17.5103 20.2557 17.2029 20.5475 17.1401 20.6142C16.9993 20.7634 16.8558 20.9046 16.718 21.0403C15.8662 21.8787 15.2275 22.5073 16.7533 23.534C17.4865 24.0273 18.0733 24.4353 18.6586 24.8422C19.2979 25.2867 19.9355 25.7301 20.7605 26.2822C20.9706 26.4229 21.1714 26.569 21.3669 26.7113C22.1108 27.2528 22.7792 27.7393 23.6049 27.6617C24.0847 27.6167 24.5803 27.156 24.832 25.7822C25.4269 22.5353 26.5961 15.5004 26.8663 12.6015C26.89 12.3475 26.8602 12.0225 26.8363 11.8798C26.8124 11.7371 26.7624 11.5338 26.5808 11.3833C26.3656 11.2051 26.0335 11.1675 25.885 11.17C25.2096 11.1823 24.1735 11.5502 19.1869 13.6678Z" fill="white"/>
</svg>
