<svg width="37" height="37" viewBox="0 0 37 37" fill="none" xmlns="http://www.w3.org/2000/svg">
<path fill-rule="evenodd" clip-rule="evenodd" d="M18.625 0.669922C8.68387 0.669922 0.625 8.7288 0.625 18.6699C0.625 28.611 8.68387 36.6699 18.625 36.6699C28.5661 36.6699 36.625 28.611 36.625 18.6699C36.625 8.7288 28.5661 0.669922 18.625 0.669922ZM18.7146 15.7007L18.6642 14.8572C18.513 12.6712 19.8402 10.6745 21.9401 9.89992C22.7129 9.62452 24.0232 9.59009 24.88 9.83107C25.216 9.93435 25.8543 10.2786 26.3079 10.5884L27.1311 11.1565L28.0383 10.8638C28.5423 10.7089 29.2142 10.4507 29.5166 10.2786C29.8022 10.1237 30.0542 10.0376 30.0542 10.0893C30.0542 10.3819 29.4326 11.3802 28.9118 11.931C28.2063 12.7056 28.4079 12.7745 29.8358 12.2581C30.6926 11.9655 30.7094 11.9655 30.5414 12.2925C30.4406 12.4646 29.9198 13.0671 29.3654 13.6179C28.4247 14.5646 28.3743 14.6679 28.3743 15.4597C28.3743 16.6818 27.8031 19.2293 27.2319 20.6235C26.1735 23.2399 23.9056 25.9423 21.6377 27.3021C18.4458 29.2128 14.1956 29.6947 10.6173 28.5759C9.42453 28.1972 7.375 27.2333 7.375 27.0611C7.375 27.0095 7.99658 26.9407 8.75255 26.9234C10.3317 26.889 11.9108 26.4415 13.2548 25.6497L14.162 25.0989L13.1204 24.7374C11.642 24.221 10.3149 23.0333 9.97891 21.9145C9.87811 21.553 9.91171 21.5358 10.8525 21.5358L11.8268 21.5186L11.0037 21.1227C10.0293 20.6235 9.13894 19.7801 8.70215 18.9195C8.38296 18.2998 7.97978 16.7334 8.09737 16.6129C8.13097 16.5613 8.48376 16.6646 8.88695 16.8023C10.0461 17.2326 10.1973 17.1293 9.52532 16.4064C8.26537 15.0982 7.87898 13.1532 8.48376 11.3114L8.76935 10.4852L9.87811 11.604C12.146 13.8589 14.8171 15.2015 17.8746 15.5974L18.7146 15.7007Z" fill="white"/>
</svg>
