<svg width="37" height="37" viewBox="0 0 37 37" fill="none" xmlns="http://www.w3.org/2000/svg">
<path fill-rule="evenodd" clip-rule="evenodd" d="M18.558 0.669922C8.61692 0.669922 0.558044 8.7288 0.558044 18.6699C0.558044 28.611 8.61692 36.6699 18.558 36.6699C28.4992 36.6699 36.558 28.611 36.558 18.6699C36.558 8.7288 28.4992 0.669922 18.558 0.669922ZM20.0236 24.3521C19.8462 24.5392 19.4996 24.577 19.4996 24.577H18.3521C18.3521 24.577 15.8204 24.7263 13.5901 22.4476C11.1579 19.9616 9.0102 15.0291 9.0102 15.0291C9.0102 15.0291 8.88624 14.7055 9.02053 14.5497C9.17172 14.3737 9.58397 14.3626 9.58397 14.3626L12.327 14.3451C12.327 14.3451 12.5852 14.3866 12.7702 14.5202C12.9233 14.6309 13.0088 14.8364 13.0088 14.8364C13.0088 14.8364 13.452 15.937 14.0389 16.9326C15.1855 18.8766 15.7189 19.3016 16.1077 19.0933C16.6749 18.79 16.5049 16.3454 16.5049 16.3454C16.5049 16.3454 16.5153 15.4586 16.2195 15.0632C15.9903 14.7571 15.5584 14.6677 15.3677 14.6428C15.2128 14.6226 15.4663 14.2704 15.795 14.1128C16.289 13.8759 17.1604 13.8621 18.1906 13.8722C18.9935 13.8805 19.2245 13.9294 19.5381 14.004C20.2661 14.1765 20.2434 14.7291 20.1943 15.9217C20.1796 16.2784 20.1626 16.6923 20.1626 17.1704C20.1626 17.2778 20.1594 17.3924 20.1562 17.5102C20.1391 18.1212 20.1196 18.8208 20.5298 19.0813C20.7402 19.214 21.2538 19.1006 22.5394 16.9584C23.1489 15.9426 23.6053 14.7489 23.6053 14.7489C23.6053 14.7489 23.7057 14.5359 23.8607 14.4447C24.0194 14.3516 24.2335 14.3801 24.2335 14.3801L27.1202 14.3626C27.1202 14.3626 27.9879 14.2603 28.1278 14.6456C28.2753 15.0484 27.8039 15.9905 26.6244 17.5336C25.5056 18.9977 24.9611 19.5368 25.0111 20.0136C25.0476 20.3619 25.4015 20.677 26.0807 21.2954C27.4985 22.5875 27.8785 23.2673 27.9698 23.4307C27.9774 23.4442 27.983 23.4542 27.987 23.4607C28.6227 24.4959 27.2817 24.577 27.2817 24.577L24.7171 24.612C24.7171 24.612 24.1668 24.7189 23.4419 24.2304C23.0621 23.9747 22.691 23.5571 22.3376 23.1593C21.7978 22.5518 21.2991 21.9906 20.8735 22.1232C20.1589 22.3462 20.1805 23.8571 20.1805 23.8571C20.1805 23.8571 20.1861 24.1806 20.0236 24.3521Z" fill="white"/>
</svg>
