<svg width="40" height="41" viewBox="0 0 40 41" fill="none" xmlns="http://www.w3.org/2000/svg">
<path d="M11.6667 8.71887C11.6667 11.2985 14.5432 14.0159 16.9162 15.8188C18.2481 16.8307 18.914 17.3366 20 17.3366C21.086 17.3366 21.7519 16.8307 23.0838 15.8188C25.4568 14.016 28.3333 11.2985 28.3333 8.71884C28.3333 4.06856 23.7499 2.33237 20 5.92468C16.2501 2.33237 11.6667 4.06856 11.6667 8.71887Z" fill="#212121"/>
<path opacity="0.5" d="M10.4332 36.3172H9.99999C8.42864 36.3172 7.64297 36.3172 7.15481 35.8291C6.66666 35.3409 6.66666 34.5552 6.66666 32.9839V31.1307C6.66666 30.2665 6.66666 29.8344 6.88862 29.4485C7.11059 29.0626 7.44544 28.8679 8.11516 28.4784C12.5243 25.914 18.7859 24.4704 22.9651 26.9631C23.2459 27.1306 23.4984 27.3327 23.7142 27.5751C24.6444 28.6199 24.5766 30.1968 23.5046 31.1324C23.2782 31.33 23.0369 31.4798 22.7939 31.5319C22.9936 31.5088 23.185 31.4822 23.3676 31.4531C24.8866 31.2108 26.1617 30.3991 27.329 29.5173L30.341 27.242C31.4029 26.4399 32.9788 26.4397 34.0409 27.2417C34.997 27.9636 35.2893 29.1523 34.6849 30.1212C33.98 31.2511 32.9868 32.6966 32.0332 33.5798C31.0782 34.4643 29.6565 35.2539 28.4958 35.8141C27.2101 36.4347 25.7897 36.7923 24.3449 37.0262C21.4147 37.5005 18.3609 37.4281 15.4605 36.8306C13.8209 36.4928 12.118 36.3172 10.4332 36.3172Z" fill="#212121"/>
</svg>
