<svg width="40" height="41" viewBox="0 0 40 41" fill="none" xmlns="http://www.w3.org/2000/svg">
<path opacity="0.5" d="M15.9873 6.00377C15.5815 6.34962 15.3785 6.52257 15.1618 6.66783C14.665 7.00084 14.107 7.23196 13.5202 7.3478C13.2642 7.39834 12.9984 7.41955 12.4668 7.46197L12.4668 7.46198C11.1312 7.56856 10.4634 7.62185 9.90622 7.81865C8.61756 8.27382 7.60392 9.28745 7.14875 10.5761C6.95196 11.1333 6.89867 11.8011 6.79208 13.1367L6.79208 13.1367C6.74966 13.6683 6.72845 13.9341 6.67791 14.1901C6.56206 14.7769 6.33094 15.3349 5.99794 15.8317C5.85267 16.0484 5.67972 16.2514 5.33383 16.6573C4.46476 17.6771 4.03021 18.187 3.7754 18.7201C3.18603 19.9532 3.18603 21.3867 3.7754 22.6198C4.03022 23.1529 4.46475 23.6628 5.33383 24.6826L5.33388 24.6827C5.6797 25.0885 5.85268 25.2914 5.99794 25.5082C6.33094 26.005 6.56206 26.563 6.67791 27.1498C6.72845 27.4057 6.74966 27.6715 6.79208 28.2031L6.79208 28.2032C6.89867 29.5388 6.95196 30.2066 7.14875 30.7638C7.60392 32.0524 8.61756 33.066 9.90622 33.5212C10.4634 33.718 11.1312 33.7713 12.4668 33.8779L12.4668 33.8779C12.9984 33.9203 13.2642 33.9415 13.5202 33.9921C14.107 34.1079 14.665 34.339 15.1618 34.672C15.3786 34.8173 15.5815 34.9903 15.9874 35.3361C17.0072 36.2052 17.5171 36.6398 18.0502 36.8946C19.2833 37.4839 20.7168 37.4839 21.9499 36.8946C22.483 36.6398 22.9929 36.2052 24.0127 35.3361C24.4186 34.9903 24.6215 34.8173 24.8383 34.672C25.3351 34.339 25.8931 34.1079 26.4799 33.9921C26.7359 33.9415 27.0016 33.9203 27.5332 33.8779L27.5333 33.8779C28.8689 33.7713 29.5367 33.718 30.0939 33.5212C31.3825 33.066 32.3962 32.0524 32.8513 30.7638C33.0481 30.2066 33.1014 29.5388 33.208 28.2032L33.208 28.2031C33.2504 27.6715 33.2716 27.4057 33.3222 27.1498C33.438 26.563 33.6691 26.005 34.0021 25.5082C34.1474 25.2914 34.3204 25.0885 34.6663 24.6826C35.5353 23.6628 35.9699 23.1529 36.2247 22.6198C36.8141 21.3867 36.8141 19.9532 36.2247 18.7201C35.9699 18.187 35.5353 17.6771 34.6663 16.6573C34.3204 16.2514 34.1474 16.0484 34.0021 15.8317C33.6691 15.3349 33.438 14.7769 33.3222 14.1901C33.2716 13.9341 33.2504 13.6683 33.208 13.1367L33.208 13.1367C33.1014 11.8011 33.0481 11.1333 32.8513 10.5761C32.3962 9.28745 31.3825 8.27382 30.0939 7.81865C29.5367 7.62185 28.8689 7.56856 27.5333 7.46198L27.5332 7.46197C27.0016 7.41955 26.7359 7.39834 26.4799 7.3478C25.8931 7.23196 25.3351 7.00084 24.8383 6.66783C24.6215 6.52256 24.4186 6.34961 24.0127 6.00372C22.9929 5.13464 22.483 4.70011 21.9499 4.44529C20.7168 3.85592 19.2833 3.85592 18.0502 4.44529C17.5171 4.70011 17.0072 5.13465 15.9874 6.00372L15.9873 6.00377Z" fill="#1C274C"/>
<path d="M27.2892 17.1082C27.8189 16.5785 27.8189 15.7196 27.2892 15.1899C26.7595 14.6602 25.9007 14.6602 25.3709 15.1899L17.2872 23.2737L14.6292 20.6157C14.0995 20.0859 13.2406 20.0859 12.7109 20.6157C12.1812 21.1454 12.1812 22.0042 12.7109 22.5339L16.328 26.1511C16.8578 26.6808 17.7166 26.6808 18.2463 26.1511L27.2892 17.1082Z" fill="#1C274C"/>
</svg>
