<svg width="40" height="41" viewBox="0 0 40 41" fill="none" xmlns="http://www.w3.org/2000/svg">
<path opacity="0.5" d="M20 37.3366C29.2047 37.3366 36.6666 29.8747 36.6666 20.6699C36.6666 11.4652 29.2047 4.00327 20 4.00327C10.7952 4.00327 3.33331 11.4652 3.33331 20.6699C3.33331 29.8747 10.7952 37.3366 20 37.3366Z" fill="#1C274C"/>
<path d="M13.9958 26.5922C14.4069 26.0376 15.1897 25.9213 15.7443 26.3324C16.9582 27.2322 18.4235 27.7533 20 27.7533C21.5765 27.7533 23.0417 27.2322 24.2556 26.3324C24.8102 25.9213 25.5931 26.0376 26.0042 26.5922C26.4153 27.1468 26.2989 27.9297 25.7443 28.3408C24.1236 29.5421 22.1416 30.2533 20 30.2533C17.8584 30.2533 15.8763 29.5421 14.2556 28.3408C13.701 27.9297 13.5847 27.1468 13.9958 26.5922Z" fill="#1C274C"/>
<path d="M25 20.6699C25.9205 20.6699 26.6666 19.5506 26.6666 18.1699C26.6666 16.7892 25.9205 15.6699 25 15.6699C24.0795 15.6699 23.3333 16.7892 23.3333 18.1699C23.3333 19.5506 24.0795 20.6699 25 20.6699Z" fill="#1C274C"/>
<path d="M15 20.6699C15.9205 20.6699 16.6666 19.5506 16.6666 18.1699C16.6666 16.7892 15.9205 15.6699 15 15.6699C14.0795 15.6699 13.3333 16.7892 13.3333 18.1699C13.3333 19.5506 14.0795 20.6699 15 20.6699Z" fill="#1C274C"/>
</svg>
