<svg width="37" height="37" viewBox="0 0 37 37" fill="none" xmlns="http://www.w3.org/2000/svg">
<path fill-rule="evenodd" clip-rule="evenodd" d="M18.625 0.669922C8.68387 0.669922 0.625 8.7288 0.625 18.6699C0.625 28.611 8.68387 36.6699 18.625 36.6699C28.5661 36.6699 36.625 28.611 36.625 18.6699C36.625 8.7288 28.5661 0.669922 18.625 0.669922ZM26.1262 12.4819C26.9523 12.7086 27.603 13.3766 27.8238 14.2248C28.225 15.7622 28.225 18.9699 28.225 18.9699C28.225 18.9699 28.225 22.1775 27.8238 23.715C27.603 24.5633 26.9523 25.2312 26.1262 25.458C24.629 25.8699 18.625 25.8699 18.625 25.8699C18.625 25.8699 12.621 25.8699 11.1237 25.458C10.2975 25.2312 9.64693 24.5633 9.42613 23.715C9.025 22.1775 9.025 18.9699 9.025 18.9699C9.025 18.9699 9.025 15.7622 9.42613 14.2248C9.64693 13.3766 10.2975 12.7086 11.1237 12.4819C12.621 12.0699 18.625 12.0699 18.625 12.0699C18.625 12.0699 24.629 12.0699 26.1262 12.4819Z" fill="white"/>
<path d="M16.825 22.27V16.27L21.625 19.2701L16.825 22.27Z" fill="white"/>
</svg>
